<?xml version="1.0" encoding="UTF-8" standalone="no"?>
<!-- Created with Inkscape (http://www.inkscape.org/) -->

<svg
   width="150mm"
   height="120mm"
   viewBox="0 0 150 120"
   version="1.1"
   id="svg5"
   sodipodi:docname="pig.svg"
   inkscape:version="1.2.2 (b0a84865, 2022-12-01)"
   xmlns:inkscape="http://www.inkscape.org/namespaces/inkscape"
   xmlns:sodipodi="http://sodipodi.sourceforge.net/DTD/sodipodi-0.dtd"
   xmlns="http://www.w3.org/2000/svg"
   xmlns:svg="http://www.w3.org/2000/svg">
  <sodipodi:namedview
     id="namedview7"
     pagecolor="#ffffff"
     bordercolor="#000000"
     borderopacity="0.25"
     inkscape:showpageshadow="2"
     inkscape:pageopacity="0.0"
     inkscape:pagecheckerboard="0"
     inkscape:deskcolor="#d1d1d1"
     inkscape:document-units="mm"
     showgrid="false"
     inkscape:zoom="1.4105186"
     inkscape:cx="272.94925"
     inkscape:cy="244.94537"
     inkscape:window-width="1224"
     inkscape:window-height="969"
     inkscape:window-x="681"
     inkscape:window-y="40"
     inkscape:window-maximized="0"
     inkscape:current-layer="layer1"
     showguides="false" />
  <defs
     id="defs2">
    <inkscape:path-effect
       effect="spiro"
       id="path-effect586"
       is_visible="true"
       lpeversion="1" />
    <inkscape:path-effect
       effect="spiro"
       id="path-effect512"
       is_visible="true"
       lpeversion="1" />
    <inkscape:path-effect
       effect="spiro"
       id="path-effect454"
       is_visible="true"
       lpeversion="1" />
    <inkscape:path-effect
       effect="spiro"
       id="path-effect383"
       is_visible="true"
       lpeversion="1" />
    <inkscape:path-effect
       effect="spiro"
       id="path-effect168"
       is_visible="true"
       lpeversion="1" />
    <inkscape:path-effect
       effect="spiro"
       id="path-effect980"
       is_visible="true"
       lpeversion="1" />
    <inkscape:path-effect
       effect="spiro"
       id="path-effect980-7"
       is_visible="true"
       lpeversion="1" />
    <inkscape:path-effect
       effect="spiro"
       id="path-effect980-7-4"
       is_visible="true"
       lpeversion="1" />
    <inkscape:path-effect
       effect="spiro"
       id="path-effect980-7-4-7"
       is_visible="true"
       lpeversion="1" />
    <inkscape:path-effect
       effect="spiro"
       id="path-effect980-74"
       is_visible="true"
       lpeversion="1" />
  </defs>
  <g
     inkscape:label="Layer 1"
     inkscape:groupmode="layer"
     id="layer1">
    <g
       id="g937"
       transform="translate(-26.472528,-88.483517)">
      <g
         id="g929">
        <g
           id="g924">
          <path
             style="fill:#ffd5d5;stroke-width:0.264583"
             d="m 98.548464,105.32154 c 15.927546,-0.0645 31.553136,6.88292 43.009116,17.94869 7.92007,7.6503 14.03724,17.40688 16.23723,28.19644 2.19998,10.78956 0.20857,22.61095 -6.41625,31.40676 -4.71005,6.25356 -11.46533,10.71996 -18.626,13.88483 -18.52705,8.18857 -40.269757,8.05177 -59.264535,1.01596 -9.110783,-3.3747 -17.888665,-8.47365 -23.705813,-16.25541 -5.920163,-7.91956 -8.323698,-18.21546 -7.275557,-28.04751 1.048141,-9.83205 5.40491,-19.17153 11.678066,-26.81452 10.753801,-13.10205 27.41372,-21.2666 44.363743,-21.33524 z"
             id="path166"
             inkscape:path-effect="#path-effect168"
             inkscape:original-d="m 98.548464,105.32154 c 16.046646,-0.006 33.752816,7.90221 43.009116,17.94869 9.42075,10.22497 15.85144,50.2103 9.82098,59.6032 -5.87028,9.1434 -7.75491,8.82341 -18.626,13.88483 -12.35915,5.75424 -45.379434,5.98315 -59.264535,1.01596 -13.399328,-4.79341 -16.1493,-8.39256 -23.705813,-16.25541 -8.353743,-8.6924 -6.41237,-39.81527 4.402509,-54.86203 9.13518,-12.70979 27.486842,-21.32884 44.363743,-21.33524 z"
             sodipodi:nodetypes="ssssssss" />
          <path
             style="fill:#d35f5f;stroke-width:0.264583"
             d="m 98.424998,144.72708 c 5.155812,-0.15551 10.256272,1.48912 14.730502,4.0558 4.47423,2.56668 8.37344,6.027 11.99241,9.70254 2.423,2.46087 4.77543,5.08838 6.18203,8.24247 0.7033,1.57704 1.1587,3.27556 1.22531,5.00103 0.0666,1.72547 -0.26475,3.47864 -1.05734,5.01275 -1.27495,2.46776 -3.68373,4.23175 -6.31827,5.11182 -2.63454,0.88007 -5.48371,0.94271 -8.24223,0.61733 -5.51705,-0.65076 -10.84045,-2.80831 -16.39574,-2.81874 -5.363797,-0.0101 -10.517221,1.98183 -15.830963,2.71297 -2.65687,0.36557 -5.393919,0.41 -7.989718,-0.26411 -2.595799,-0.67412 -5.049998,-2.11686 -6.606407,-4.30094 -1.100922,-1.5449 -1.718286,-3.41071 -1.874737,-5.30129 -0.156451,-1.89057 0.137269,-3.80467 0.740027,-5.6034 1.205517,-3.59746 3.594711,-6.67447 6.161794,-9.46823 3.073007,-3.34435 6.490176,-6.41552 10.400967,-8.72502 3.910792,-2.30949 8.342616,-3.83806 12.882365,-3.97498 z"
             id="path452"
             inkscape:path-effect="#path-effect454"
             inkscape:original-d="m 98.424998,144.72708 c 7.408062,-3.96901 18.080122,8.46693 26.722912,13.75834 8.64279,5.2914 8.69262,14.74275 6.35,18.25625 -3.52804,5.2914 -20.99001,2.38151 -30.95624,2.91041 -10.174164,0.53994 -20.63724,-2.20459 -30.427088,-1.85208 -9.789847,0.35251 3.351655,-12.87613 5.027084,-20.37292 1.675429,-7.49679 15.875264,-8.73098 23.283332,-12.7 z"
             sodipodi:nodetypes="sssssss" />
        </g>
      </g>
      <path
         style="fill:#d35f5f;stroke-width:0.264583"
         d="m 120.91457,109.00834 c -0.47484,-2.22702 0.18322,-4.61195 1.51501,-6.45895 1.33178,-1.847 3.28654,-3.184975 5.39699,-4.040006 4.22089,-1.710064 8.92265,-1.556456 13.46092,-1.936469 4.86556,-0.40742 9.72657,-1.456641 14.58667,-0.98855 2.43005,0.234046 4.84798,0.859605 6.9688,2.068766 2.12081,1.209161 3.93226,3.029739 4.90287,5.269789 1.13516,2.61981 1.05933,5.63174 0.38908,8.40713 -0.67024,2.77539 -1.89797,5.378 -3.03492,7.99704 -1.40912,3.246 -2.73384,6.62012 -5.09344,9.25725 -1.17979,1.31857 -2.61603,2.43167 -4.25853,3.0895 -1.64249,0.65783 -3.49912,0.84024 -5.20011,0.35324 -1.21855,-0.34888 -2.32585,-1.0269 -3.28397,-1.85672 -0.95812,-0.82981 -1.77493,-1.81016 -2.53266,-2.82625 -1.51546,-2.03217 -2.83869,-4.25443 -4.76671,-5.90036 -1.49783,-1.27868 -3.29964,-2.15252 -5.14102,-2.851 -1.84138,-0.69848 -3.74073,-1.23482 -5.58604,-1.92283 -1.84531,-0.68801 -3.65532,-1.54038 -5.1747,-2.79337 -1.51939,-1.25299 -2.73756,-2.94211 -3.14824,-4.86821 z"
         id="path510"
         sodipodi:nodetypes="sssssss"
         inkscape:original-d="m 120.91457,109.00834 c -5.55651,-5.64471 13.49402,-6.08516 20.37292,-12.435425 6.8789,-6.350264 11.99471,3.616235 26.45834,6.350005 14.46362,2.73376 0.9704,8.29054 -2.64584,16.40417 -3.61624,8.11362 -8.11362,2.29331 -14.55208,12.69999 -6.43846,10.40668 -4.85043,-1.32265 -10.58334,-10.58333 -5.7329,-9.26068 -13.49348,-6.79071 -19.05,-12.43541 z"
         inkscape:path-effect="#path-effect512" />
      <path
         style="fill:#d35f5f;stroke-width:0.264583"
         d="m 81.15626,109.27292 c 0.474837,-2.22701 -0.183224,-4.61195 -1.515007,-6.45895 -1.331783,-1.847 -3.286543,-3.184972 -5.39699,-4.040004 -4.220894,-1.710063 -8.922654,-1.556456 -13.460919,-1.936469 -4.865564,-0.40742 -9.726572,-1.456641 -14.586674,-0.98855 -2.430051,0.234045 -4.847977,0.859603 -6.968791,2.068764 -2.120815,1.209161 -3.932262,3.029739 -4.902876,5.269789 -1.135163,2.61981 -1.059327,5.63174 -0.389086,8.40713 0.670241,2.77539 1.897977,5.378 3.034926,7.99704 1.409119,3.246 2.733844,6.62012 5.09344,9.25725 1.179798,1.31856 2.616034,2.43166 4.25853,3.08949 1.642496,0.65783 3.499122,0.84024 5.200111,0.35324 1.218552,-0.34888 2.325849,-1.0269 3.283968,-1.85671 0.95812,-0.82982 1.774926,-1.81017 2.532658,-2.82625 1.515464,-2.03217 2.838693,-4.25443 4.766714,-5.90036 1.497834,-1.27868 3.299644,-2.15252 5.14102,-2.851 1.841375,-0.69847 3.740731,-1.23482 5.586041,-1.92283 1.845311,-0.68801 3.655312,-1.54038 5.174701,-2.79337 1.519389,-1.25299 2.737556,-2.94211 3.148234,-4.86821 z"
         id="path582"
         sodipodi:nodetypes="sssssss"
         inkscape:original-d="m 81.15626,109.27292 c 5.55651,-5.64471 -13.49402,-6.08516 -20.372916,-12.435423 -6.8789,-6.35027 -11.994711,3.616243 -26.458341,6.350003 -14.463607,2.73376 -0.9704,8.29054 2.64584,16.40417 3.61624,8.11362 8.11362,2.29331 14.552081,12.69998 6.43846,10.40668 4.85043,-1.32265 10.58334,-10.58332 5.732896,-9.26068 13.493476,-6.79071 19.049996,-12.43541 z"
         inkscape:path-effect="#path-effect586" />
    </g>
    <path
       style="fill:#ffffff;stroke-width:0.108291"
       d="m 42.256575,41.188872 c -1.531392,0.877042 -2.874186,2.108138 -3.786049,3.619056 -0.911862,1.510917 -1.378016,3.306029 -1.206505,5.062431 0.168678,1.727382 0.952389,3.377088 2.132201,4.650015 1.179812,1.272927 2.743222,2.17169 4.419143,2.622899 1.675922,0.451208 3.459469,0.46188 5.157803,0.104165 1.698335,-0.357716 3.311953,-1.078247 4.755659,-2.041582 1.560849,-1.041501 2.947037,-2.391952 3.829004,-4.048185 0.881966,-1.656234 1.227314,-3.635515 0.73865,-5.447194 -0.392283,-1.454356 -1.302922,-2.74288 -2.463248,-3.703443 -1.160326,-0.960564 -2.561148,-1.605015 -4.016448,-1.993783 -3.182274,-0.850112 -6.70191,-0.461353 -9.56021,1.175621 z"
       id="path978"
       inkscape:path-effect="#path-effect980"
       inkscape:original-d="m 42.256575,41.188872 c -2.443282,0.391773 -5.768588,5.527962 -4.992554,8.681487 0.778863,3.165022 13.667677,7.264817 16.464806,5.335497 4.109447,-2.834491 5.877876,-5.697128 4.567654,-9.495379 -1.30928,-3.795523 -3.576108,-3.79805 -6.479696,-5.697226 -2.903589,-1.899172 -7.116927,0.783847 -9.56021,1.175621 z"
       sodipodi:nodetypes="ssssss" />
    <path
       style="fill:#ffffff;stroke-width:0.108291"
       d="m 100.15727,40.85844 c 1.53139,0.877042 2.87418,2.108139 3.78605,3.619056 0.91186,1.510917 1.37801,3.306029 1.2065,5.06243 -0.16868,1.727382 -0.95239,3.377088 -2.1322,4.650016 -1.17981,1.272928 -2.74322,2.171691 -4.419145,2.6229 -1.675921,0.451209 -3.459469,0.461881 -5.157804,0.104165 -1.698335,-0.357715 -3.311953,-1.078247 -4.755659,-2.041582 -1.56085,-1.041501 -2.947038,-2.391954 -3.829004,-4.048188 -0.881965,-1.656235 -1.227312,-3.635517 -0.738646,-5.447197 0.392284,-1.454354 1.302922,-2.742876 2.463247,-3.703438 1.160325,-0.960563 2.561145,-1.605013 4.016443,-1.993782 3.182277,-0.850114 6.701917,-0.461357 9.560218,1.17562 z"
       id="path978-4"
       inkscape:path-effect="#path-effect980-74"
       inkscape:original-d="m 100.15727,40.85844 c 2.44328,0.39177 5.76859,5.527961 4.99255,8.681486 -0.77886,3.165019 -13.667678,7.264819 -16.464808,5.335499 -4.10945,-2.83449 -5.87788,-5.69713 -4.56765,-9.495385 1.30928,-3.79552 3.5761,-3.79805 6.47969,-5.69722 2.903595,-1.89917 7.116942,0.78384 9.560218,1.17562 z"
       sodipodi:nodetypes="ssssss" />
  </g>
</svg>
