<svg xmlns="http://www.w3.org/2000/svg" width="438.5" height="513.9" viewBox="0 0 438.5 513.9">
  <g id="katman_2" data-name="katman 2">
    <g id="katman_1-2" data-name="katman 1">
      <g>
        <path d="M87.4.5c-.9.4-2.5,3.6-3.9,8.2s-8.8,19-12.3,24.2c-1.6,2.5-5.1,7.4-7.7,10.9C50.4,61.7,40.1,79.1,34.9,92.4l-2.5,6.2.3,12.6c.2,11.9.3,13.1,1.5,19.1a117.9,117.9,0,0,0,5.7,19.8,22.8,22.8,0,0,1,1.5,4.9c-.1.3-5.2,3.6-11.3,7.2-14.2,8.4-15.4,9.2-20.3,14s-6.5,7.5-3.9,8.6c.6.3.9.8.8,1.1-4.6,11-6.7,17.6-6.7,21,0,1.7,1.2,4,2.2,4.5s1,.6,1,7.8a82.7,82.7,0,0,0,.6,10.6c.6,3.2.8,3.5,3.6,5.7.9.7,1.8,2.6,3.7,8,4,10.7,9.7,22.6,14.8,30.1,8,12,21.4,25.1,42.5,41.4a67.5,67.5,0,0,1,7.1,5.9c.1.3.7,3.9,1.3,8.1,2.8,19,5.3,27.9,14.5,51.7,2.5,6.3,5.6,14.6,6.9,18.4,3.8,10.8,4.9,13.8,7.4,19.5,4.7,10.6,7.8,18.7,9.2,23.8s1.3,5.8,1.4,10.9v5.8l-2,3.2c-1,1.7-3.5,5.6-5.5,8.7-3.8,6.1-6.7,11.6-7.1,13.8a4.9,4.9,0,0,0,2.3,4.8,21.7,21.7,0,0,0,4.7.8c3.5.2,3.6.2,4.2,1.6a4.1,4.1,0,0,0,1.6,2c1.4.7,8.1.9,16.8.4,16.2-1,25.3-3.4,30.2-7.7,1.8-1.6,1.9-1.7,2-4.6.2-4.5.4-4.9,1.8-4.9a3.4,3.4,0,0,0,3.2-2.6c.2-.6.8-3.8,1.5-7.3a64.4,64.4,0,0,1,3.6-12c3.2-8,7.6-17.8,10.3-22.8l2.2-4.3h2.6a42.3,42.3,0,0,1,5,.5c2.4.5,2.4.6,2.2,1.7s-4.4,9.8-7.1,14.4c-1.2,2.1-2.8,5.3-3.6,7a55.6,55.6,0,0,1-4.2,6.9c-5,7-7,11.4-6.5,14.3s.5,1.9,5.4,2.4a16.7,16.7,0,0,1,6.1,1.6l2.2,1.1,14.8-.2c15.7-.3,20.5-.7,22.7-1.8s4-4.1,5.6-8.1a13.6,13.6,0,0,1,1.7-3.3c.8,0,6.1,5,7.8,7.4a70.1,70.1,0,0,1,7.3,14.2c.6,1.7,1.6,4.2,2.2,5.6a51.6,51.6,0,0,1,1.7,7.2c1,6.7,1.5,7.6,4.5,9.2s12.8,4.9,15.6,5.4,3.9-.8,4.8-3.9a7,7,0,0,1,.8-2.3l2.2,1.7c2.4,2,5.9,3.2,8,2.8a13.2,13.2,0,0,0,2.7-1.3c2-1.5,6.7-7.6,8.6-11.1s1.6-3,1.6-7.7a70.4,70.4,0,0,0-2.8-17.5,55.6,55.6,0,0,0-3.7-7.2c-3.1-5.1-4.4-7.9-5.6-12s-2.4-11.7-2-12.8,9.8-5.8,10.1-5,.1,3.1.3,6.8a60,60,0,0,0,.9,8.4c.4,1.4,2.1,3.4,7.4,8.9,7.6,7.9,7.7,8.1,12.7,20.5s5.2,11.9,11.4,13.6c2.9.8,4.5.9,11.5.9,9.1,0,13.2-.5,14.8-1.8s3-2.2,6.5-2.6a22.1,22.1,0,0,0,4.1-.9c.6-.6.7-3.3.1-5.8-.3-1-2.4-6.2-4.9-11.6s-5.3-12.1-6.4-14.9c-2-4.9-2.1-5.1-2.5-11.7a95.4,95.4,0,0,1,1.6-27.2c.8-4.3,2.5-11.3,3.6-15.6a257.1,257.1,0,0,0,5.9-28.1c1.2-7.2,1.2-7.4,1.2-26.3V331l-1.4-4c-.7-2.2-1.4-4.6-1.5-5.2s-1.1-1,8.2-3.6,15-5.4,20.9-10.2,14.9-16.2,18.4-23.1c1.5-3.2,2.5-4.1,5.9-5.6s9.3-6.7,15.5-13.3c2.7-2.8,3.7-4.3,4.2-5.9a28.1,28.1,0,0,1,2.2-4.7c1.3-2,1.4-2.5,1-3.3s-2.9-2.2-5.1-2.2-2-.1-1.1-2.2a11.1,11.1,0,0,0,.6-2.7v-1.2l-4.2.3-4.3.2,1.5-3.1c1.9-3.9,2.1-5,1.4-6s-.9-.7-2.2-.5c-3.9.7-13.7,12.6-18.9,22.9-2.3,4.7-2.7,5.7-3.4,11.3-1.3,9.2-5.7,15.9-14.5,21.8a53,53,0,0,1-13.7,6.8,27,27,0,0,1-9.4,1.6c-9,.3-11.6-.5-24.7-8.2-8.5-4.9-12-6.7-16.2-8.2a73.4,73.4,0,0,1-12.2-6.7c-.2-.2,3.3-4.1,7.8-8.8,10.7-10.9,13.1-13.7,22-25.4s13.5-17.4,17.7-21.4c8.6-8.3,16-11.9,26.5-12.6,7.8-.6,8.5-1.3,5.5-5.6a11.3,11.3,0,0,1-1.5-2.6c0-.4,8.2,0,12.5.7s4.5.2,4.1-3.8-2.7-8.1-9.4-17.2c-11.4-15.4-25.3-28.1-42.9-39.1-7.9-5-10.3-6-21.8-9.3s-15.5-3.7-35.3-4.1c-15.4-.3-22,.1-37.7,2.4-6.5,1-13.8,1.9-16.3,2-4.3.3-4.6.2-9-1.3-7-2.4-11.6-4.3-11.6-4.7s1.2-.9,9.1-3.3l3.2-1V116l-1.8-.8-6.1-2.2-4.9-1.6c-1.1-.3.2-.8,2.9-1.2a27.3,27.3,0,0,0,4.8-1c1.9-.6,2.3-.9,2.4-1.8s-3.8-5.1-9.5-6.6-23.6-1.9-36.3-.3c-3.6.5-9.7,1-13.7,1.2l-7.1.3-.4-1.1a29.9,29.9,0,0,1-.9-5.5c-1.2-10.3-2.8-15.9-6.7-22.8-6.2-10.9-10.6-15.2-28-27.5A161,161,0,0,1,107.8,27c-6.9-7-8.8-9.5-13.5-18.7C91.4,2.7,89.5-.1,88.7,0Z"/>
        <g>
          <path d="M78.6,193.1a2.4,2.4,0,0,0,.2,3.8c1.6.9,3.7-1.4,2.5-2.9S79.4,192.6,78.6,193.1Z" style="fill: #fff"/>
          <path d="M76.1,211.5a11.1,11.1,0,0,1-6.5-6c-3.2-6.6-1-13.2,5.4-16.3a18.1,18.1,0,0,1,4.5-1.5c2.5-.4,5.9.6,8.6,2.7s2.2,1.5,2.2,1.3a14.4,14.4,0,0,0-1.1-2.8c-2-4.2-5.6-6.3-12.4-7.5-3-.4-3.3-.4-5.2.1s-9.6,8.3-11,12.3a5,5,0,0,0-.2,3.4c.6,2.4,6.2,13.4,7.4,14.8s1.2,1.1,5.6,1.1a19.2,19.2,0,0,0,4.7-.3C78.2,212.6,77.3,212,76.1,211.5Z" style="fill: #fff"/>
          <path d="M76.7,150.8c3.6-.6,5.8-.7,12.1-.4,4.3.1,10,.5,12.9.9,9.1,1.1,13.9,1.3,15.6.5s6.6-4.9,6.6-5.6-.6-.6-11.3-1.5c-6.1-.5-27.9-.6-29.6-.1s-11.4,6.3-11,6.8Z" style="fill: #404040"/>
          <path d="M69.7,216.8c1.7.2,2.3.2,2-.2s-.7-.5-1.3-.5a7.2,7.2,0,0,1-5.2-2.8c-1.8-2.1-5.7-9.9-7.2-14l-1.2-3.4.8-2.4c1.1-3.3,4.2-7.4,8.3-11.3s6.7-5.7,10.9-5.7,3.9.2,5.9,1.2a21.9,21.9,0,0,1,9,9.1l1.5,3-.4,6.4c-.3,6.7-.7,8.5-2.3,10.7s-1.7,2.5-.8,2,7.6-6.2,10-9.1c6-7.1,13-19.3,15.6-26.9a135.9,135.9,0,0,0,3.5-15.7c.2-1.6.2-1.8-.7-2a17.4,17.4,0,0,0-3.8-.3c-1.6,0-7-.4-12.2-.8s-12.5-.9-17.3-.9c-8.7.1-8.6.1-13.5,1.3-6.7,1.7-8.6,2.5-10.3,4.3-5.3,5.8-12.6,22.1-12.6,28,0,2.7.2,3.2,4.3,9.8a101.8,101.8,0,0,1,5.4,9.6C61.6,213.6,64.3,216.1,69.7,216.8Z" style="fill: gray"/>
          <path d="M200.8,112.5l1.4-1.2H201c-3.6.1-14.9,2.7-19.9,4.7s-5.9,3-7.1,6a50.4,50.4,0,0,1-3.1,6.1l-2.3,3.7.5,4.3c.4,4.1.4,4.6-.5,8.1a32.9,32.9,0,0,0-1,6.2c0,2.9-.2,2.8,4.3,2.2,2.1-.3,2.3-.3,4,1.2s1.8,1.7,4.3,1.4,6.4-1.7,11.7-5.1,6.8-4.2,7.6-4.2a5.8,5.8,0,0,1,2.1,1.5c1.9,1.7,2.9,1.9,6.6.9s7.5-2.9,12.6-6.3c8.1-5.5,11-7.7,10.3-8.1l-6-2.3c-9-3.4-12.8-5.7-12.2-7.3s2.6-1.9,8-3.8,6.6-2.4,6.1-2.8-5.4-1.3-15.3-2C198.7,114.8,198.1,114.7,200.8,112.5Z" style="fill: gray"/>
          <path d="M85.4,191.9c-1.7-.8-2.7-1-5.6-1s-3.6.1-4.9,1a9.8,9.8,0,0,0,1.4,16.8,6.1,6.1,0,0,0,4.8.8c5.4-.5,8.5-4.1,8.6-9.9C89.7,195.7,88.5,193.4,85.4,191.9Zm1.1,11.8a7.9,7.9,0,0,1-5.6,3.4,9.8,9.8,0,0,1-5.7-3.1c-1.7-2.3-.7-9.1,1.6-11.6s3.6-1.5,6.1.7C87.1,196.9,88.3,200.5,86.5,203.7Z" style="fill: gray"/>
          <path d="M299.2,138.8a67.3,67.3,0,0,0,24.6,5.7l5.1.2-3.7-1.4c-3.8-1.5-5.3-2.5-4.9-3.3s2.4-.6,9.6.6,8.3,1.3,6.8,0-1.5-2.8-.5-2.8.7-.2.7-.4-5.9-2.3-12.2-3.6-11.9-1.8-21.2-2.2l-10.1-.4c-4.6-.2-6.7,0-6.5.7S294.5,136.8,299.2,138.8Z" style="fill: gray"/>
          <path d="M212.1,112.1c.1-.3.1-.4-.2-.4a.9.9,0,0,0-.7.4c-.1.2,0,.4.2.4A1,1,0,0,0,212.1,112.1Z" style="fill: gray"/>
          <path d="M182.3,248.9l-1.3-.7c-.6,0-2.1,1.7-2.1,2.3a2.6,2.6,0,0,0,1.9,2c.9,0,2.4-1.3,2.4-2.1A2,2,0,0,0,182.3,248.9Z" style="fill: #fff"/>
          <path d="M141,86.6c-.8,8.6-.8,9.5,1.2,14l.9,2.1h17.4v-2.1a99.5,99.5,0,0,0-1.9-14c-1.1-5.3-5.2-13.7-9.6-19.6a7.4,7.4,0,0,0-1.8-2c-.2,0-.4,1.3-.6,2.9s-.5,4.1-.8,5.5-.5,2.5-2.1,2.7S142,75.6,141,86.6Z" style="fill: gray"/>
          <path d="M197.1,193.2c2.9,2.8,5.7,5.3,6.2,5.7s10.3,10.9,12.2,13.8,3.5,6,5.6,9.9,3.9,7.2,4.1,7.2-1.4-13.2-3.7-20.4-5.2-12.6-8.7-16.6-11-10.8-14.4-12.4-5.4-2.1-6.6-1.3-1.6,3.8-.7,6.8S192.2,188.6,197.1,193.2Z" style="fill: #404040"/>
          <path d="M100.6,44.4c-3.6-5-7.8-11.1-9.3-13.5a34.6,34.6,0,0,0-3.1-4.4c-.2,0-.5.9-.6,2.1s-4.3,14.9-5.2,16-1.6.9-2.9.1-1.2-.5-1.4-.3S73.5,50.8,70.5,56c-8.2,14.6-14.9,31-17,41.7a73.5,73.5,0,0,0-.2,21.5c1.2,7.7,5.6,23,7.2,24.5s1.3.6,15.5-10.2c21.8-16.6,27.6-20.4,36.4-24.2l5.1-2.2.6-3.4c.7-4.6.4-18.3-.6-23.7C115,66.4,112.9,61.9,100.6,44.4Z" style="fill: #d96769"/>
          <path d="M165.2,270.7c.3.2,6.4.5,13.6.7l13.1.4,2.1-2c3.1-3.1,3.3-3.9.3-1.7-5.2,3.9-12.2,3.7-18.1-.5s-7.7-15.4-1.9-21.8c3-3.2,9.2-5.6,13.1-5.1,6.2.9,12.2,6.5,12.8,12.1a4.3,4.3,0,0,0,.6,2.1c.6.3,0-2.5-1-5.3a18.8,18.8,0,0,0-5.6-7.5,20,20,0,0,0-3.7-2.2c-2.2-1-2.8-1.1-8.8-1.1-7.6,0-10.1.7-13.7,3.4s-4.7,5.7-5.4,10.9S163.2,269.4,165.2,270.7Z" style="fill: #fff"/>
          <path d="M45,151l1.2,2.7,1.7-.9c1.4-.7,8-4.9,9.6-6.1s-.6-2.7-1.7-5.7c-4.4-12.5-6.3-22.3-6.3-32.7,0-6.8.1-8.1,1.2-12.6C53.8,82.1,59.8,68.5,70.6,50c7-12,6.6-11.5,8.8-9.8s1.4,1.4,3.9-6.4c4.2-13.3,3.8-12.2,4.9-12.2s1.4.6,3,3.2A207.7,207.7,0,0,0,103,42.5c9.4,13.2,12,17.6,14.8,25.9s3.3,13.5,3.7,25.8c.1,5.8.4,10.7.6,10.8s1.9,0,3.8-.3l8.3-1.4,4.9-.9c.2-.2-.4-2.8-1.7-7.1s-1-3.4-.3-5.3a67.4,67.4,0,0,0,1.4-9.3c.9-10.3,1.1-10.8,3.4-10.3s1.4.2,1.6-1.4a28.6,28.6,0,0,0,.3-4.6V61.3l-3.1-2.4-13.4-10c-5.6-4.1-11.7-8.7-13.4-10.2-4.8-3.8-14.1-13.2-16.9-17S90.4,11.4,89.8,9.2s-.7-2.6-4.3,6C80.8,26.5,77,32.9,66.1,47.9c-3.4,4.8-7.7,10.9-9.4,13.5-8.3,12.7-17,29.3-18.6,35.5s-1.6,16.8-.7,24.2C39,132.9,41.7,143.8,45,151Z" style="fill: #fff"/>
          <path d="M199.5,260.7c-.6,1.8-.3,2.1.4.4a2.9,2.9,0,0,0,.3-1.6C200.1,259.4,199.8,259.9,199.5,260.7Z" style="fill: gray"/>
          <path d="M191.3,244.6c-3.2-1.3-9-1.2-11.8.3s-5,4.7-5.6,6.7-.7,7.6.4,9.8c2.3,4.5,5.9,6.7,11.3,6.7a10.8,10.8,0,0,0,5.9-1.2,12,12,0,0,0,5.5-5.6c1.4-2.5,1.4-8.6,0-11.2A13.7,13.7,0,0,0,191.3,244.6Zm.9,14.2a7.3,7.3,0,0,1-11.6,2.4c-1.5-1.2-2.8-5.1-3.2-9.3-.3-2.7-.3-2.8,1-4.1s2.6-1.6,6.6-.2,6.2,2.9,7.2,5A6.2,6.2,0,0,1,192.2,258.8Z" style="fill: gray"/>
          <path d="M257.3,412.5l-6.9-6c-2-1.5-2.4-1.5-3,.2-1.2,3.3-2,3.9-3.7,2.6a3.9,3.9,0,0,1-1.6-1.8c-.3-.5-.6-.9-.7-.9s-3.2,4.6-4.5,8.8a33.8,33.8,0,0,1-2.2,5.7c-.7,1-1.4,1-3.8.3-.9-.3-.9-.1-1.2,4.5-.5,9.5-.5,9.8,1.6,14s3.1,5.7,5.9,8.5c4.4,4.6,9.4,6.5,17.4,6.9,5.1.2,5.2.2,6.5-.9s2.4-1.5,7.8-2a16.2,16.2,0,0,0,4.5-.6c.1-.1-.2-.7-.7-1.3l-1-1.1,1-1.1a2.8,2.8,0,0,1,1.8-1c1.2,0,1.3-1,.3-4.5a51.8,51.8,0,0,1-1.2-6.2c-.2-2.6-.1-3,.9-4.1l1.1-1.4-3-5.1c-3.7-6.3-4.1-6.7-5.5-6.4S264.3,419,257.3,412.5Z" style="fill: gray"/>
          <path d="M159.4,474.5c-.2-2.1-.4-3.3-.7-3.2a65.5,65.5,0,0,0-7,3.4c-7,3.7-12.6,6.2-14.9,6.6s-3.4-1.6-2.4-7.1a6,6,0,0,0,.2-2.5,38.4,38.4,0,0,0-4.8,1.6l-5.8,2.1c-1.9.6-2.6,1.8-5.2,8.7-1.7,4.5-2.2,6.3-1.8,6.5s9.5.4,15.1-.1c14.6-1.3,24.6-4,27.1-7.2.8-.9.9-1.5.7-3.3S159.6,476.4,159.4,474.5Z" style="fill: #404040"/>
          <path d="M211.4,438.4c-2.2-3.6-4.7-7.3-5.5-8.3-2.8-3-3.9-2.4-6.9,4.3-1.2,2.7-3.4,7.4-4.9,10.4l-2.8,5.6c0,.2,1.5.2,3.4.2H198v2c0,1.9.1,2.1.9,1.9,4.2-1.1,7.1-1.7,7.7-1.4s.8,2-.2,5.3a17.4,17.4,0,0,0-.8,3.3c0,.3.9.6,2.6.8,3.4.4,4.8,1.2,4.4,2.8a8.6,8.6,0,0,1-1.6,2.9l-1.2,1.9,3.2-.2,6.6-.5c3.9-.3,6.2-.9,7.1-1.7a18.2,18.2,0,0,0,1.5-4.1l.9-3.5-5-5.2C217.4,448.1,216.2,446.4,211.4,438.4Z" style="fill: #fff"/>
          <path d="M207.1,467.9l1.7-2.1-2.1-.3a11,11,0,0,1-3.3-.9c-.9-.7-1-.9-.8-2.9s.4-2.9.5-3.7l.3-1.5-2.1.3c-5,.8-6.3.8-7.1.2s-.8-.7-.1-2.2.6-1.5-.2-1.5-7.4,5-11.8,11.3c-2.8,4-3.5,5.6-2.8,6.3s2.7-1.6,9-8.6a25.1,25.1,0,0,1,3.5-3.5c.9,0,.3,2.6-2,7.8-1.2,3-2.3,5.6-2.3,5.9s1.9,1.4,17.7,1.2,24.7-1.1,11.6-1.1C205.8,472.5,204.1,471.7,207.1,467.9Z" style="fill: #404040"/>
          <path d="M292.2,488.4a9.5,9.5,0,0,0-2.6-1.3,2,2,0,0,0-1.5,1.4c0,1.1-2.4,3.8-5.1,5.7l-4.4,3.4-1.5,1.3.8,1.7c1.2,2.3,6.7,7.9,7.9,7.9s3.9-2.4,6.7-6.2C298.2,494.8,298.1,491.7,292.2,488.4Z" style="fill: #404040"/>
          <path d="M271,496.9c-1.5,0-8.2-3.2-11-5.3l-2.6-2c-.3-.3-.5.1-.7,1.2s-.3,11.5.1,12.7,10.7,5.8,14.5,5.8c1.6,0,1.7-.1,1.9-1.6s-.1-9.6-.7-10.3A2.6,2.6,0,0,0,271,496.9Z" style="fill: #404040"/>
          <path d="M429.9,255.4l1.7-1.2h-2.7c-5.5,0-7.1-1.1-5.1-3.6s.9-1.4-1.8.2a23.4,23.4,0,0,1-3.4,1.6c-1.1.2-1.3.1-1.3-.8a8,8,0,0,1,.9-4.7c1.5-3,.4-1.8-2.6,2.9-4.3,6.6-8.1,14.3-8.7,17.8s-.3,3.1.4,4.9,2.9,3.8,4.9,3.3,7.3-4.2,11.5-8.4c2.1-2.3,3.9-4.2,3.9-4.5s-.4-.6-.9-.8C424.5,261.2,425.9,258.4,429.9,255.4Z" style="fill: gray"/>
          <path d="M359.6,480.9a20.7,20.7,0,0,0-5.4-2.6l-4.5-1.5c-.2,0-.8.8-1.3,1.7s-1.5,2.1-5,.9l-2.7-.9c-.2,0-.5.6-.6,1.5s-2.4,3.7-3.4,3.4l-5.6-1-5.1-1-.8,1c-.9,1.2-1,4.6-.1,6.4s3.1,2.4,7.9,3,17.1.5,17.9,0,.5-.6-.2-1.6c-2.1-3-3.8-7.4-2.8-7.4a14.9,14.9,0,0,1,2.2,2.1c2,2.1,2,2.1,5.8,2.6l5.5.6c1.6.3,1.6.3,1.3-.9A13.8,13.8,0,0,0,359.6,480.9Z" style="fill: #404040"/>
          <path d="M405.4,277.8c-.2.3-1.5,2.4-2.7,4.5-4.2,6.6-10.5,11.9-20.2,16.6-8,3.9-9.2,4.2-17.6,4.5-11.2.2-12.5-.2-29.1-9.7-5.4-3.1-10-5.7-10.3-5.7s-.3.5.3,1.6,1,3.1-.1,3.5-.9.5,1,2.5,4.2,5.1,4.2,7.2-1.8,4-8.8,4.7c-3.7.4-4.1.6-4.7,2.4s-3.2,3.2-10.6,4.7-8.3,1.5-11.4.6-2.5-.6-5.3.1l-3.1.6-3.2-1.1c-4.5-1.6-9.8-3.2-10.8-3.2s-1.6,1.2-2.7,4.6-1.9,3-3.3.7-1.3-1.6-2,.9c-1.8,5.5-7.4,14.4-9.3,14.7s-1.1-.2-1.5-1.6a6,6,0,0,0-.7-1.8l-3,2.6c-5.6,5.1-10.3,7.5-22.1,11.1s-18.5,4.8-34.5,5.6-22.2-.1-41.6-5l-8.2-1.9c-.4,0-.7.5-.8,1s-.2,1-7.8.9c-10.6-.1-17.5-.8-22.5-2.4a90.7,90.7,0,0,1-16.5-7.6l-4-2.5c-.6-.4-.1.4,1.2,1.7s2.8,4.1.9,3.9-3.6-2.2-8.8-7.9a43.9,43.9,0,0,0-4.9-5c-.4,0-.3.6.5,6.2,1.3,9,4.8,25,5.5,25a8.9,8.9,0,0,0,2-1.7c3.1-3.5,4.4-1.8,3.6,4.7-.6,4.6-.5,5.1,1.3,5.1s1.8,1.1,3.5,4.5a52.6,52.6,0,0,1,4.6,13.5,14.5,14.5,0,0,0,1.2,4.2c2.2.7,3,4.7,3.4,16.6l.2,8.5,4.4,10.3c5.7,13.3,8.2,20.2,8.7,23.5a77.4,77.4,0,0,1,.7,9.4l.3,6.7H122c1.5,0,2,.9,1.4,2.4s-.5,1.3,2.8,0,5-1.4,5.4-.7-.3,3.1-2.4,6.3a17.9,17.9,0,0,0-2,3.3,22.1,22.1,0,0,0,4-1.5c4.6-2,5.6-2.1,6-.6s0,5.3-.5,7.8l-.2,1.3,1.8-.4c2.4-.5,11-4.8,16.8-8.2a26.6,26.6,0,0,1,5.5-2.8c.5,0,1.3.8,2.1,2.1a9.6,9.6,0,0,0,1.7,2.1,19.7,19.7,0,0,0,1-4c1.3-7.6,4.4-15.8,12.5-33.1,2.4-5.2,4.4-9.7,4.4-9.8s-.4.1-1,.7-1.1.9-2.4.2l-4.2-2.6-2.9-1.9a5.3,5.3,0,0,0,.9,1.6c1.3,2,1.4,3,.1,3.6s-5.7-1.2-15.8-9.4c-2.8-2.2-5.2-4-5.3-3.8s-.9,1.9-1.9,4c-2.1,4.5-3.6,6.6-4.7,6.6s-1.5-.7-2.6-4.5c-2.1-7.8-5.5-15.8-8.7-20.3s-6.8-8.2-15.9-16.8c-5.1-4.7-10.5-10.2-12.1-12-3.5-4-7.2-9.9-7.6-11.9s1-1.3,5.6,4.3c2.5,3.1,9.2,10.3,16.2,17.3s12.9,13.1,14,14.4c4.5,5.3,7.3,10.7,10.2,19.3a27.7,27.7,0,0,0,1.7,4.4c.2.1,1-2,1.8-4.6,1.5-5.3,1.9-6.3,2.6-6.3a23.8,23.8,0,0,1,4.1,3.5c4.2,3.8,13.7,11.7,14,11.4a21,21,0,0,0-2.4-3.6c-4.3-5.9-5.7-9.4-3.7-9.4.4,0,3,2.1,5.8,4.6,7.9,7.1,10,8.4,8,5.1-.8-1.6-.8-3,.2-3s2.4,1.3,4.5,3,4.5,3.4,5.2,3.8,7.4,2.6,11.9,2.9l4.2.2-.5-1c-.3-.5-1.4-1.8-2.3-2.9s-3.7-4.3-3.7-4.8,1.7-.3,4,1.3,5.9,6.1,14.1,18.5c3.6,5.5,7.7,11.3,9.1,12.9a128.1,128.1,0,0,0,10,9.5c4.2,3.6,8.6,7.6,9.8,8.9,3.5,3.9,7,10.5,9.8,18.2.7,1.9,1.3,3.5,1.6,3.5a3.6,3.6,0,0,0,.3-1.8c0-2.4.3-3.8,1.1-3.8a20.6,20.6,0,0,1,3.9,3.4c3.3,3.2,8.3,6.6,9.5,6.4a3.1,3.1,0,0,0,1.1-1.6c.2-.8.7-1.6,1-1.6s1.5.7,2.7,1.7a12.2,12.2,0,0,0,2.6,2,3.2,3.2,0,0,0,1.1-1.2c.8-1.1,1.1-1.2,2.6-1.1s3.6-.9,5.3-4.2,2.4-3.8,3.3-3.8a22.2,22.2,0,0,1,3.8,1.5,14,14,0,0,0,3.3,1.4c.3-.2-.7-6.1-1.4-8.4s-2.2-5.8-5.2-10.7a43.8,43.8,0,0,1-5.5-13.7c-.7-3.1-.8-5.6-.7-16.7s0-13.5.9-17.6c.5-2.4.9-4.6.9-4.8a16.9,16.9,0,0,0-2.8-2,28.6,28.6,0,0,1-9-7.8c-1.8-2.5-3.6-6.9-3-7.4s1.6.2,3.3.8,3,.9,3,.7a6.4,6.4,0,0,0-1.1-1.3c-2.4-2.2-6.6-9.3-6.6-11.1s1.2-.9,3.2,1.8l6.1,7.6c4.6,5.6,5.2,6.5,4.4,7.5s-2.1.8-4.9-.2c-1.3-.5-2.4-.7-2.4-.5s4.4,4.3,7.7,6.5c5,3.2,5.6,3.7,5.6,5.1a6.4,6.4,0,0,1-.5,2.4c-.8,2.2-2.1,11.9-2.1,15.9s.1,4,.8,4,18.6-8.9,23.2-12a110.6,110.6,0,0,0,10.5-8.2l9.7-8.3c5-4.3,6.2-4.2,3.3,0s-15.7,15.1-25,21.2c-2.9,1.8-5.6,3.7-6.2,4.2l-1,.8.5,7.8c.6,10.3.9,10.9,6.8,16s6,5.5,8.2,11.3,4.6,10.3,5.4,10.7a4.3,4.3,0,0,0,2.4-1l1.8-1.1,4.1,1.1a36.3,36.3,0,0,0,5.5,1.1c1.4,0,1.3.4,1.9-4.7.2-1.1,2.2-1,4.6.2s3.4,1.4,3.4-.4.5-2.7,7.9-.4a14.9,14.9,0,0,0,3.6.9c0-.1-1.4-4-3.3-8.7s-3.8-10-4.3-11.9c-1.5-5.8-1.9-12.6-1.4-20.3.8-10.2,1.6-14.5,5.2-29.6s4.8-20.1,6-29.2a171.6,171.6,0,0,0,1.6-30.1c-.2-11.7-.6-14.6-3.1-22.5a56.9,56.9,0,0,1-1.5-5.6c0-1.1,1.8-1.7,8.5-3.1s11.3-2.8,15.3-4.9c7-3.6,16.2-11.9,20.5-18.4,3.1-4.6,6.2-11.1,6.2-12.8S406.2,276.9,405.4,277.8ZM149.6,399.3c-1,.9-1.8-.1-5.2-6.4-6.8-12.7-13.3-26.6-12.7-27.4s3.4,3,10.4,16.3c2.1,4.1,3.8,7.1,3.7,6.6-.6-2.6-.6-3-.3-3.6s2.5,1,3.5,4.7S150.5,398.5,149.6,399.3Zm122.7,20.8c4.7,7,6.8,11.8,6.8,15.3,0,1.3-.2,1.7-1.3,2.2s-1.3.9-1.1,1.4a81.2,81.2,0,0,1,2.8,8.8,4.6,4.6,0,0,1-.8,1.6,4.2,4.2,0,0,0-.9,2.4c0,1.8-1.2,2.4-7.2,3.6a37.3,37.3,0,0,0-6.6,1.8c-2,.8-2.9,1-8.5,1s-8.6-.4-13.7-2.7-11.6-9.8-14.2-16.5-1-21.7,1.7-22.7c.3-.2,1.2.1,1.9.6s1.7,1,2.9-3,4.2-9.2,6.7-10.7,2.8-1.1,3.3.4l.5,1.2.7-1.7c.6-1.3,1-1.6,1.9-1.6s6.2,3.7,12.2,9.2l4.4,4.1.4-1.3C265,410.6,267.4,412.6,272.3,420.1Z" style="fill: #fff"/>
          <circle cx="384.8" cy="502.5" r="0.4" style="fill: gray"/>
          <path d="M361.8,212.3c6.6-5,12.7-7.7,19.8-8.6a18.3,18.3,0,0,0,4.2-.9c.5-.4-2.6-2.7-5.1-3.8a6.3,6.3,0,0,0-2.1-.8c-6.6.5-19.1,10-41.3,31.4-15,14.5-18.3,17.2-29.8,24.3s-16.7,9.3-26.7,12.6a80,80,0,0,0-9.4,3.4c-.5.4-.5,1.7-.1,7.4.2,4,.6,7.2.9,7.4s8.2,0,14.5-2.1a92.9,92.9,0,0,0,18.1-9.1c11.1-7.2,18.7-15,33.9-34.9C352.2,221,356.1,216.5,361.8,212.3Z" style="fill: #fff"/>
          <path d="M320.8,290.2c1-.9.8-1.5-1.4-3.5a34.2,34.2,0,0,0-9.6-6.4,38,38,0,0,0-4.6-1.9c-.8-.2-2.7.6-6.9,2.5-8.9,4.3-13.9,5.8-25.3,7.8l-1.7.2.3,7.8c.2,4.3.4,8.7.6,9.7l.2,1.9,3.3.7,6.8,2.1c4.1,1.5,5.8,1.7,8.7.9s2.3-.5,4.7.1,4.9.6,12.5-.8c4.5-.8,5.4-1.3,5.4-3.1s.9-2.8,7.1-3.7c8.3-1.2,8.2-1.2,4.9-5.1C319.7,292.1,319.4,291.4,320.8,290.2Z" style="fill: gray"/>
          <path d="M118.4,339.2a74.7,74.7,0,0,0,11.1.9l8.1.3-1.2-1.3c-1.1-1.2-1.1-1.3-.3-2s.1-1.2,17.6,3.3c7.9,2,16.2,3.9,18.5,4.2,6.1.7,32.5.2,38.2-.7,8.2-1.3,24.9-6.1,29.7-8.5,3-1.6,6.7-4.4,11.4-9a47.1,47.1,0,0,1,4.8-4.1c.5,0,1,1,1,2.2s.9.7,2.2-2.1,2.4-6.1,3.8-10c2.9-7.9,3.3-8.8,3.8-8.3a20.3,20.3,0,0,1,1,3.6c.6,3,.6,3.1.7,1.3s-1.1-29.4-1.5-34c-.6-8.5-2-16-7.9-42.8-6.3-29-8.4-40.4-9.5-52.5-.6-6.3-.4-8.1.9-8.1s.8-.6,3.4,15.6c2,12.6,7.8,42.2,8.7,44.4l.6,1.4,1.8-2.8c2.1-3.3,5.8-10.7,5.5-11a18.2,18.2,0,0,0-2.9,2c-3.4,2.6-4.5,3.2-5.4,2.9s-.2-3.1,4-9.7,7.2-11.6,6.9-11.8a14.3,14.3,0,0,0-2.7,2.7c-4.2,5-6.3,7-7.2,7s-.8-.2-.6-2.4c.4-3.8,1.8-5.9,7.2-11.3,16.4-16.4,40.8-32.2,55.3-35.8,3.7-.9,15-1.3,19.7-.7,12,1.6,19.5,5.6,47.8,25.3a74.5,74.5,0,0,0,7.6,5c.3-.3-1.8-3.3-6.6-9.7-9.2-12-15-18.3-24.5-26.2s-23.9-16.6-27.7-16.6c-.9,0-.6.6.9,1.7s1.6,3-2.7,3c-2.6,0-2.6,0-2.3,1.1s0,1.3-.3,1.5-14,.5-18.6,0c-11.4-1.4-26.1-7.2-34.3-13.4-2-1.5-2.1-1.6-5.8-1.6s-13.8,1-25.2,2.6l-13.9,1.9c-6,.7-7.2,1.3-14.4,6.4-11.6,8.2-20.8,11.1-24.8,7.8a5.5,5.5,0,0,0-1.7-1.1,35.8,35.8,0,0,0-4.6,2.7c-5.4,3.5-7.9,4.8-11.3,5.6s-6.2.7-8-.7-2-1-5.2-1.1-3.9-.4-4.5-1-1.2-4.8-.2-9.7,1.1-6.2-.2-7.7a5,5,0,0,1-1.1-2.2,45.3,45.3,0,0,1,3-6.7c2.3-4.4,3-6.2,3-7.6s.3-1.9,1.8-3.3c3.9-3.6,13.8-7.6,21.7-8.8a104.2,104.2,0,0,1,10.8-.6,46.8,46.8,0,0,0,12.7-1.3l6-1.5c.3-.3-3.1-1-6.8-1.5a139.8,139.8,0,0,0-18.4-.1l-6.8.8c-3.4.5-13,.8-31.3,1.2-28.7.7-29.8.8-38.8,3.5-12.1,3.6-16.2,6.2-43.4,26.5C57.6,150.8,51.6,154.8,24.5,171c-4.3,2.5-8.3,5.1-9,5.6l-1.2,1,1.4-.6c1.7-.9,3.6-.9,3.6-.1s-1.7,2.7-3.7,5.2a70.7,70.7,0,0,0-9.4,16.6l-1.5,3.9c0,.2.6-.3,1.2-1.1s1.5-1.2,1.7-1,.4,3.3.2,11.7c-.2,11.5-.2,11.5.7,12s1.8,1.9,4.5,10.7c5.6,18.1,12.2,31,22,43.3a218.8,218.8,0,0,0,20.9,21.2c6.9,5.8,27.4,21.5,33.8,25.8C101.9,333.5,109.9,337.4,118.4,339.2ZM190.3,176a4.5,4.5,0,0,1,2.1-1c1.2,0,5.9,1.6,8,2.6s11.5,9.3,16.3,15.3c7.1,8.9,11.9,25,11.9,39.9,0,4.5-.2,5.1-1.6,5.1s-2.4-1.5-7-10.2-7-13-7.9-13.7a27.8,27.8,0,0,1-2.1-2.8c-2.4-3.6-5.1-6.5-12-12.8-3.5-3.3-7.1-6.6-7.8-7.4C186.5,186.8,186.6,178.8,190.3,176Zm-24.5,63.4c3.4-3.4,5.7-4.8,10.8-6.9a14.2,14.2,0,0,1,7-1.4c10.8,0,17.4,5.3,20.2,16.1a19.7,19.7,0,0,1,.1,10.5,73.6,73.6,0,0,1-6.1,13c-1,1.4-1.2,2-.8,2.1l2.9.8c2.9.9,3.6,1.3,3.3,2.2s-3.3.9-10-.2c-5.1-.9-6.5-.9-19.7-.7-15.5.3-16,.2-13.4-1.9l1.4-1.1-1.2-4.5C157.1,255.7,159,246.3,165.8,239.4ZM60.6,272c-11.4-6.3-15.7-9-19.5-12.5s-7.5-8.2-8.5-11.1c-3-7.8,1.4-19.3,9.8-25.7,3.1-2.4,2.8-3.2-1.7-4.1-1.5-.3-2.8-.8-2.9-1.1s2.4-1.8,4.1-1.8a9.8,9.8,0,0,1,5.4,2.3c1.3,1,1.4,1,7.5.6,3.4-.2,6.5-.5,6.8-.6s.1-.7-.9-1.8a43.5,43.5,0,0,1-4-6.5L51,199.5c-5.3-9.1-5.6-9.7-5.9-11.5-.6-4.2,5-18.8,10.5-27.2,2.6-3.9,4.9-5.7,15-12.1,7.3-4.6,10-6,14.2-7.1s23.8-.9,32.7.6a57.3,57.3,0,0,0,5.9.9c5.7.7,6,1.5,2.3,5.3a22.4,22.4,0,0,0-3.3,4.2,43.2,43.2,0,0,0-1.1,6.2,80.5,80.5,0,0,1-16.6,39.6c-3.6,4.4-9.8,10.4-13.5,12.8A74,74,0,0,1,77.3,218l-3,.9,13.4.2,13.5.2,2.6,1.5c6,3.4,9.6,6.4,12.2,10.3.9,1.3,3.7,6.3,6.2,11.1,4.2,8,7.2,12.9,15.9,25.7,3.8,5.6,4.7,8.3,4.3,13.7a21.2,21.2,0,0,1-3.3,10.9,13.7,13.7,0,0,0-1.6,3.3c.2.4,6.1-3,7.5-4.3a2.1,2.1,0,0,0,.7-2.2c-.3-1.2-.1-1.3,1.6-2.1a19.6,19.6,0,0,1,10.3-1.4l4,1.2c1.8.8,4.9,3.5,4.9,4.3s-.4.6-4.1-.7a58.6,58.6,0,0,0-9.2-2.1,25.5,25.5,0,0,0-3.6,2.9,31.9,31.9,0,0,1-11.1,7.3c-4.9,2-12.9,4.3-15.7,4.6-4.5.5-13-1.1-19.2-3.7s-8.2-4.1-17.7-11.3S72.6,278.6,60.6,272Z" style="fill: #fff"/>
          <path d="M120.6,299.6c8,0,9.1-.4,12.7-4.3,5.9-6.5,7.9-16,4.5-22.2-.7-1.3-3.5-5.6-6.2-9.4a172.7,172.7,0,0,1-13.9-23.3c-3.6-7-4.4-8.1-7.3-11s-7.2-5.8-11.1-6.4c-1.5-.2-7.7-.6-13.9-.8-26.1-1-32.3-.9-36.7.8s-10.6,7.1-12.3,11.9c-1.2,3-1.8,8.7-1.3,11.2,1.5,6.8,9.5,13.6,27.8,23.8a157.4,157.4,0,0,1,23.3,15c12.9,9.8,16.4,11.8,23.8,13.7C113.3,299.4,115,299.6,120.6,299.6ZM67.7,247.1c-5.7,4.2-13.8,5.8-16.1,3.3-.7-.8-.7-1.1-.3-2.6s4.9-5.1,12.4-7.7c4.2-1.5,5.9-1.6,7.3-.6S71.6,244.3,67.7,247.1Zm39.1-19.8c1.5,1.8,3.4,4.8,11.3,18.6,2.2,3.7,6,9.7,8.5,13.2,4.9,6.9,7.3,11,7.4,12.5s-.6,1.2-2.5-1c-5.9-7.1-11.7-16-18.9-28.8l-7-12.2a11.2,11.2,0,0,1-1.6-3.3C104,225,105.2,225.5,106.8,227.3Zm1,48.9c-.2,3.2-1.1,4.6-3,4.6s-4.4-3.4-4.9-9.6c-.3-4.1.1-6,2-8s1.5-1.3,1.8-1.2C105.6,262.6,108.1,271.5,107.8,276.2Z" style="fill: #d96769"/>
          <path d="M103.1,266.6c-.8,0-.2,7.6.7,9.7s.7,1.7,1.2.6.1-4.8-.8-8A5.7,5.7,0,0,0,103.1,266.6Z" style="fill: gray"/>
          <path d="M395.7,195.1l2.7.3c.3-.3-12.6-9.3-23.1-16.3-14.5-9.7-20.9-12.6-31.4-13.9-6.5-.8-13.5-.5-17.9.6a68,68,0,0,0-15.2,6.1c-10.7,5.8-28.1,18.2-30.9,22.1a32,32,0,0,0-2.7,6.2c-2,6.4-3,8.7-4.9,11.8-1,1.4-1.7,2.7-1.5,2.8a4.8,4.8,0,0,0,1.8-.6c2.5-1.1,3.2-.6,2.9,1.7s-3,8.5-5.8,13.4a36.2,36.2,0,0,0-2.2,4.2,36.8,36.8,0,0,0,2.8,3.2c2.7,2.8,4.3,5.9,4,7.5s-2.1,1.2-4.5.4a11.3,11.3,0,0,0-3-.7c-.9,0-1,.2-.8,1.6s3,15.4,3.7,18.5l.5,2.3,1.9-.3c3.5-.4,17.3-5.3,21.5-7.6,7.9-4.1,24.7-15.3,30-19.8,1.3-1.1,7.4-6.8,13.5-12.6,23.4-22.3,29.5-27.2,37.2-29.8,3.1-1.1,4.1-1.2,11.1-1.4A70,70,0,0,1,395.7,195.1Z" style="fill: #d96769"/>
          <path d="M54.4,247.8l-.6,1,2.8-.2c4.1-.4,11.9-4.1,11.9-5.8S56.3,244.8,54.4,247.8Z" style="fill: gray"/>
          <path d="M269.2,239.9a9.6,9.6,0,0,0-2.3-2c-1.8-1.4-2.8-1.6-2.8-.6s1.9,2.8,3.9,3.1S269.8,240.6,269.2,239.9Z" style="fill: gray"/>
          <path d="M101.4,390.6c-1.4.3-1.4.3-2.3-6.6-1.1-8.5-4.1-16.3-6.8-17.4s-3.1-2.1-3.1-5.4v-3a2.5,2.5,0,0,0-.3.7c-.6,1.5-.2,4.4.8,6.8,3.3,7.8,7.7,19,10.2,26.1,1.6,4.5,3.2,8.6,3.5,9.2s.6,1,.6.2-.8-8.2-1.1-9.7S102.5,390.4,101.4,390.6Z" style="fill: gray"/>
          <path d="M124.3,469.6c2-2.4,3.7-4.5,3.7-4.6s-1.2-.1-3.7,1.1-5.3,2-6.2.9l-.7-.9-1.1,1.2c-3.1,3.4-10.1,15.7-10.1,17.8v1.2h3.5c2.4-.2,3.9-.4,4.7-.9s2-2.6,3.7-6A39.1,39.1,0,0,1,124.3,469.6Z" style="fill: #404040"/>
        </g>
      </g>
    </g>
  </g>
</svg>
